<svg xmlns="http://www.w3.org/2000/svg" xmlns:xlink="http://www.w3.org/1999/xlink" width="616.057" height="384" viewBox="0 0 616.057 384">
  <defs>
    <rect id="rect-1" width="616.057" height="384" x="0" y="0"/>
    <mask id="mask-2" maskContentUnits="userSpaceOnUse" maskUnits="userSpaceOnUse">
      <rect width="616.057" height="384" x="0" y="0" fill="black"/>
      <use fill="white" xlink:href="#rect-1"/>
    </mask>
  </defs>
  <g>
    <use fill="none" xlink:href="#rect-1"/>
    <g mask="url(#mask-2)">
      <path fill="rgb(242,242,242)" fill-rule="evenodd" d="M0 40.24456787C0 62.4710083 17.35031128 80.48907471 38.75299072 80.48907471c21.39263916-.02508545 38.72879029-18.02850342 38.75299073-40.24450684C77.50598145 18.01806641 60.15567017 0 38.75299072 0 17.35031128 0 0 18.0180664 0 40.24456787zm1.61471558 0c0-21.300354 16.62738037-38.56768799 37.13827514-38.56768799 20.50128174.02410889 37.11505127 17.27734375 37.13827515 38.567688 0 21.300354-16.62738037 38.56768798-37.13827515 38.56768798-20.51089477 0-37.13827514-17.26733398-37.13827514-38.56768799z"/>
      <path fill="rgb(242,242,242)" fill-rule="evenodd" d="M282.57385254 36.8908081c0 11.11322022 8.6751709 20.12231446 19.37646484 20.12231446 10.6963501-.01263428 19.36437989-9.01428223 19.37652588-20.12231445 0-11.11322022-8.6751709-20.12225342-19.37652588-20.12225342-10.70129394 0-19.37646484 9.0090332-19.37646484 20.12225342zm1.61468506.00006104c0-10.18713379 7.95220947-18.44543457 17.76177978-18.44543457 9.80499268.01147461 17.75073242 8.26306152 17.76177979 18.44543457 0 10.18707275-7.95220947 18.44537354-17.76177979 18.44537354-9.80957031 0-17.76177978-8.25830079-17.76177978-18.44537354z"/>
      <path fill="rgb(242,242,242)" fill-rule="evenodd" d="M416.5946045 132.47161865c0 12.50238037 9.75952148 22.6375122 21.79858398 22.6375122 12.0333252-.01409911 21.7849121-10.1409912 21.79852295-22.6375122 0-12.50238037-9.75952149-22.63757324-21.79852295-22.63757324-12.0390625 0-21.79858399 10.13519287-21.79858399 22.63757324zm1.61468505 0c0-11.57629394 9.0366211-20.96069336 20.1838379-20.96069336 11.1420288.0130005 20.17132567 9.38983155 20.18383788 20.96069336 0 11.57629395-9.0366211 20.96069336-20.18383789 20.96069336-11.1472168 0-20.18383789-9.38439941-20.18383789-20.96069336z"/>
      <path fill="rgb(204,204,204)" fill-rule="evenodd" d="M615.24959772 384H433.59498345c-.44588922 0-.80735384-.37537698-.80735384-.83842795s.36146462-.83842795.80735384-.83842795h181.65461427c.44588921 0 .80735384.37537698.80735384.83842795S615.69548693 384 615.24959772 384z"/>
      <ellipse cx="517.447" cy="107.894" fill="rgb(255,184,184)" rx="19.829" ry="20.593"/>
      <path fill="rgb(255,184,184)" fill-rule="evenodd" d="M519.50393942 352.42731878l-9.37176338 3.30508297-16.7388672-35.96772053 13.83239337-4.87881222 12.27823721 37.54144978z"/>
      <path fill="rgb(47,46,65)" fill-rule="evenodd" d="M502.4538795 355.2694857l18.0748107-6.13921536 4.01420486 11.81844726-29.45522331 10.00463917c-1.06463463-3.1344443-.88665977-6.54775988.49477215-9.48905626 1.38143193-2.94129638 3.8531612-5.16963789 6.8714356-6.19481482z"/>
      <path fill="rgb(255,184,184)" fill-rule="evenodd" d="M540.68002332 372.7441048l-9.88524043.5156332-6.62110885-39.35161573 14.59049862-.762131 1.91585066 39.59811353z"/>
      <path fill="rgb(47,46,65)" fill-rule="evenodd" d="M523.57999745 370.6882787l19.06490724-.95815428.6265015 12.4658346-31.0687207 1.56143575c-.16616063-3.30614402.93916918-6.54043763 3.07282928-8.99137258 2.1336601-2.45093495 5.12087202-3.91774322 8.30448269-4.07774349z"/>
      <path fill="rgb(255,184,184)" fill-rule="evenodd" d="M481.8521534 241.99545852c1.79444368-1.65920388 2.78903698-4.05860713 2.71615515-6.55257936-.07288182-2.49397224-1.20575217-4.8263263-3.09377877-6.3694734l9.42504874-28.3172248-14.52552278 3.85487371-6.72325526 26.29954795c-2.33735418 3.54346844-1.75323877 8.3424092 1.3596388 11.17043979 3.11287758 2.8280306 7.77059426 2.79126283 10.84171411-.0855839z"/>
      <path fill="rgb(47,46,65)" fill-rule="evenodd" d="M539.75633787 360.87936838c-.12786426-.00016292-.25563287-.00726852-.3827826-.02128768L525.95485 359.38264035c-1.69925108-.17803695-3.04599508-1.56807306-3.22784102-3.33160245l-10.3702421-96.00819144-7.50389377 26.27213974 13.99031985 51.6329083c.28830574 1.06422966.11265614 2.20622693-.4805361 3.12423649-.59319224.91800956-1.54423724 1.51965685-2.60183591 1.64596578l-13.60202302 1.62363249c-1.78973896.2054611-3.45654708-.97458242-3.92638779-2.77974917l-14.86232658-58.10535406c-.12247371-.47763254-.15301764-.97566313-.0898827-1.46557206l6.67998916-52.14915353 49.82493 4.14915353 3.60273578 122.99999581c.02997547 1.0201797-.33929275 2.0094545-1.02355293 2.74211279-.68426018.7326583-1.62513835 1.1461973-2.60796501 1.1462645v-.00005869z"/>
      <path fill="rgb(44,151,227)" fill-rule="evenodd" d="M522.5330503 242.90829694c-16.6926704 0-35.5917662-6.69800803-36.73621448-7.1094414l-.33113618-.11913222 18.83130229-100.34647756.34651627.01473118c7.46289633.31441048 27.82887331.47571564 28.03386853.47735057l.36543257.00286742 7.8496269 88.55362795 1.40301143 12.95264699-.17187756.14451144c-4.8019146 4.03166463-11.9660012 5.42931563-19.59052977 5.42931563z"/>
      <path fill="rgb(47,46,65)" fill-rule="evenodd" d="M492.37634173 234.23621869l-11.77877584-4.92701345 6.00348316-75.41142917c.29263695-3.7657786 2.21526045-7.19011176 5.22690565-9.30950148l6.1982492-4.38045904c-.35582502-1.25631933-.1096158-2.61365013.66197622-3.64941956.77159203-1.03576943 1.97486847-1.62419866 3.23521766-1.58209416l1.77517733.0593104c.69062865-.48357606 1.59638183-.47686623 2.28029709.01689247s1.00548215 1.37312348.80956717 2.21386246l-.38987925 7.98963144-14.0222184 88.98022009z"/>
      <path fill="rgb(47,46,65)" fill-rule="evenodd" d="M486.43274807 220.71699563l-15.37894423-.67262882 4.98189798-33.2792007 4.12822625-31.31414358c.16443959-2.2780118 1.32195074-4.35321452 3.14295189-5.63472956 1.82100114-1.28151503 4.10596985-1.62893007 6.20430023-.94332459 3.32974415 1.0850239 5.43062378 4.49386572 4.9848529 8.08831441l-4.18183454 33.9289069-3.88145048 29.82680594z"/>
      <path fill="rgb(47,46,65)" fill-rule="evenodd" d="M510.78424344 235.38948472l-.10447159-.336109c-.07134586-.2300814-7.00205876-23.31796402 4.59498173-50.86899982l5.81547467-30.03725136 4.96976345-18.86037799c.18877905-.68342345.67690383-1.23434248 1.3170444-1.48647406.75845087-.27264422 1.60038324-.04801636 2.13836546.57051668 3.46408936-1.05595785 7.18801625-.66925055 10.38217479 1.07812611l6.97932368 3.8180835c3.19175638 1.74606287 4.84500096 5.51058108 4.02193811 9.15814847l-9.5392328 42.27592664 4.6371579 39.48758358-35.2125198 5.20082725z"/>
      <path fill="rgb(255,184,184)" fill-rule="evenodd" d="M520.94090008 219.11282306c2.38860563.26935316 4.76941407-.57385366 6.50179676-2.30273017 1.7323827-1.72887651 2.6383844-4.1658276 2.47421793-6.65511787l21.6016401-16.6181282-7.5508656-3.71775721-23.29325632 12.46071615c-4.09854798.57625271-7.13432766 4.2448888-7.06634498 8.53943665.06798268 4.29454783 3.21823957 7.8575759 7.33281211 8.29361418v-.00003353z"/>
      <path fill="rgb(47,46,65)" fill-rule="evenodd" d="M534.4837037 211.67398847l-7.29574987-14.14355843 17.99358387-12.29806113-8.78078038-32.70687301c-.71093556-2.64713715-.32914872-5.48211438 1.0538131-7.82514171 1.38296183-2.34302733 3.64237234-3.98279227 6.23645483-4.52610091 4.6902123-.97073786 9.34855872 1.8115004 10.89927686 6.50968873l11.84775615 36.16580751c.50078353 1.52781854.01017676 3.21722777-1.22049295 4.20277939l-30.73386161 24.62145956z"/>
      <path fill="rgb(47,46,65)" fill-rule="evenodd" d="M518.85014428 112.26158672c-2.37705962.32118498-4.17014406-2.20451213-5.00179118-4.5392489-.83164711-2.33473677-1.46530685-5.05284472-3.53199543-6.31401642-2.82353437-1.72301974-6.4361118.34931423-9.66496201-.21916507-3.64636518-.64198428-6.01720818-4.65516157-6.20299645-8.49106166-.18578826-3.83590008 1.2841205-7.5252262 2.72643392-11.06189135l.5035143 4.39526568c-.136909-3.0292176 1.2521554-5.91459725 3.66771162-7.61861031l-.64899139 6.44938061c.27893535-1.79711005 1.23566036-3.4048281 2.65865717-4.46771132 1.4229968-1.06288322 3.19505468-1.49338302 4.92439764-1.19632222l-.102211 3.84278358c4.21156132-.52007685 8.45992182-1.04087475 12.68395675-.64465886 4.22403493.3962159 8.4775625 1.7841076 11.6790192 4.67302847 4.78888389 4.32137502 6.53788681 11.43699564 5.95070644 17.99714935-.58718038 6.5601537-3.19482026 12.7228758-5.91256705 18.67614183-.6838287 1.49785991-1.62957107 3.18808035-3.21518172 3.37886463-1.4246808.17144175-2.72829083-1.06534009-3.17118093-2.48196472-.34123336-1.45352227-.32801368-2.972474.03846234-4.4193537.40068163-2.21117765.90578642-4.47128595.52905897-6.68699948-.37672745-2.21571354-1.9116282-4.40525974-4.06238654-4.6768014-2.15075834-.27154166-4.35153225 2.28151336-3.31748153 4.25871092l-.53017312-.85351966z"/>
      <path fill="rgb(230,230,230)" fill-rule="evenodd" d="M259.41082235 338.37037834l-7.71890017-3.375251-5.29513512-40.1842669H175.882551l-5.73953497 40.02009432-6.90577374 3.58572996c-.68021863.35324882-1.03730516 1.1458265-.86255295 1.91449455.17475221.76866804.835481 1.31169635 1.59600969 1.31170073h94.8039527c.7805783.0000358 1.45298501-.57134201 1.60745268-1.3659334.15446766-.79459137-.25182523-1.59211987-.97128207-1.90656826z"/>
      <path fill="rgb(204,204,204)" fill-rule="evenodd" d="M384.7194612 300.15720524H38.33398388c-3.78405163-.00882095-6.84714185-3.1969323-6.84716793-7.12663755v-50.72489083h360.07981318v50.72489083c-.00006162 3.92969-3.06313108 7.11777973-6.84716793 7.12663755z"/>
      <path fill="rgb(63,61,86)" fill-rule="evenodd" d="M391.92868696 266.27947598H31.17064004V49.2384c.00528137-4.74255259 3.70617214-8.5857288 8.27295481-8.59101904h344.2121373c4.56676425.00533635 8.26762905 3.84848558 8.2729548 8.59101904v217.04107598z"/>
      <path fill="rgb(255,255,255)" fill-rule="evenodd" d="M370.38202764 250.5266138H52.71729128c-3.52070215-.0039968-6.3738652-2.96688476-6.37782084-6.6230945V63.02333764c.00392414-3.65628984 2.8570418-6.61931444 6.37782084-6.62350533h317.66473636c3.52077904.0041909 6.3738967 2.9672155 6.37782085 6.62350533V243.9035193c-.00395564 3.65620974-2.8571187 6.6190977-6.37782085 6.6230945z"/>
      <path fill="rgb(204,204,204)" fill-rule="evenodd" d="M367.39196847 342.06209397H59.79015497c-.4458892 0-.80735384-.37537697-.80735384-.83842794s.36146463-.83842795.80735385-.83842795h307.6018135c.4458892 0 .80735383.37537698.80735383.83842795s-.36146462.83842794-.80735384.83842794z"/>
      <path fill="rgb(63,61,86)" fill-rule="evenodd" d="M340.53870154 228.05240175H82.56056894c-.4458892 0-.80735383-.37537698-.80735383-.83842795V98.80595004c0-.46305097.36146462-.83842794.80735384-.83842794.44588921 0 .80735384.37537697.80735384.83842794v127.56959581h257.17077875c.44588921 0 .80735384.37537698.80735384.83842795s-.36146463.83842795-.80735384.83842795z"/>
      <path fill="rgb(44,151,227)" fill-rule="evenodd" d="M137.67923735 218.82969432h-23.46412469c-1.32293738-.0015292-2.395054-1.11481657-2.39663795-2.48867214v-33.5903413c.00158395-1.37385557 1.07370057-2.48714294 2.39663795-2.48867215h23.46412469c1.32293607.00152922 2.39505037 1.11481794 2.39662988 2.48867214v33.59034131c-.0015795 1.37385421-1.0736938 2.48714292-2.39662988 2.48867214z"/>
      <path fill="rgb(44,151,227)" fill-rule="evenodd" d="M180.46899093 218.82969432h-23.46412468c-1.32293739-.0015292-2.395054-1.11481657-2.39663796-2.48867214v-65.45060332c.00158396-1.37385556 1.07370057-2.48714292 2.39663796-2.48867214h23.46412468c1.32293607.00152922 2.39505037 1.11481794 2.39662988 2.48867214v65.45060332c-.0015795 1.37385421-1.0736938 2.48714292-2.39662988 2.48867214z"/>
      <path fill="rgb(44,151,227)" fill-rule="evenodd" d="M223.25874452 218.82969432h-23.4641247c-1.32293737-.0015292-2.39505399-1.11481657-2.39663794-2.48867214v-33.5903413c.00158395-1.37385557 1.07370057-2.48714294 2.39663795-2.48867215h23.46412469c1.32293607.00152922 2.39505037 1.11481794 2.39662987 2.48867214v33.59034131c-.0015795 1.37385421-1.0736938 2.48714292-2.39662987 2.48867214z"/>
      <path fill="rgb(44,151,227)" fill-rule="evenodd" d="M266.0484981 218.82969432H242.5843734c-1.29273425.02889526-2.36443425-1.03354424-2.39663795-2.37592873v-78.25250935c.0322037-1.34238448 1.1039037-2.40482398 2.39663795-2.37592873h23.46412469c1.29273287-.0288952 2.36443055 1.03354557 2.39662988 2.37592873v78.25250935c-.03219933 1.34238316-1.10389701 2.40482394-2.39662988 2.37592873z"/>
      <path fill="rgb(44,151,227)" fill-rule="evenodd" d="M308.83825168 218.82969432H285.374127c-1.32293739-.0015292-2.395054-1.11481657-2.39663796-2.48867214V115.67644507c.00158396-1.37385557 1.07370057-2.48714293 2.39663796-2.48867214h23.46412468c1.32293607.00152922 2.39505037 1.11481793 2.39662988 2.48867214v100.66457711c-.0015795 1.37385421-1.0736938 2.48714292-2.39662988 2.48867214z"/>
      <ellipse cx="125.947" cy="165.17" fill="rgb(63,61,86)" rx="4.844" ry="5.031"/>
      <ellipse cx="168.737" cy="132.472" fill="rgb(63,61,86)" rx="4.844" ry="5.031"/>
      <ellipse cx="211.527" cy="165.17" fill="rgb(63,61,86)" rx="4.844" ry="5.031"/>
      <ellipse cx="254.316" cy="116.541" fill="rgb(63,61,86)" rx="4.844" ry="5.031"/>
      <ellipse cx="297.106" cy="98.096" fill="rgb(63,61,86)" rx="4.844" ry="5.031"/>
      <path fill="rgb(63,61,86)" fill-rule="evenodd" d="M211.62843298 166.29715284l-42.89148017-33.3627249-42.30534128 32.9066201-.9688246-1.34148472 43.27416588-33.66036681 42.688027 33.204262 42.41917817-48.20793013.17035166-.0721048 42.78975358-17.9037904.60390068 1.55528385-42.61940193 17.83252402-43.160329 49.04971179z"/>
    </g>
  </g>
</svg>
