<svg xmlns="http://www.w3.org/2000/svg" xmlns:xlink="http://www.w3.org/1999/xlink" width="583.917" height="409.895" viewBox="0 0 583.917 409.895">
  <defs>
    <rect id="rect-1" width="583.917" height="409.895" x="0" y="0"/>
    <mask id="mask-2" maskContentUnits="userSpaceOnUse" maskUnits="userSpaceOnUse">
      <rect width="583.917" height="409.895" x="0" y="0" fill="black"/>
      <use fill="white" xlink:href="#rect-1"/>
    </mask>
  </defs>
  <g>
    <use fill="none" xlink:href="#rect-1"/>
    <g mask="url(#mask-2)">
      <path fill="rgb(63,61,86)" fill-rule="evenodd" d="M0 180.39733887h393.64520264V0H0v180.39733887zm392.44732666-1.33972168H1.19787598V1.3397827h391.24945068V179.0576172z"/>
      <path fill="rgb(255,101,132)" fill-rule="evenodd" d="M55.5986501 68.75428858H30.86025097c-1.68820886-10.91536797-1.68820886-22.07389293 0-32.9892609h24.73839915c-2.7869886 10.7755265-2.7869886 22.2137344 0 32.9892609z"/>
      <path fill="rgb(230,230,230)" fill-rule="evenodd" d="M77.01545857 82.80680844h24.73841711c1.68821477-10.91536965 1.68821477-22.07389795 0-32.9892676h-24.7384171c2.78698875 10.77552874 2.78698875 22.21373886 0 32.9892676z"/>
      <path fill="rgb(230,230,230)" fill-rule="evenodd" d="M236.65839764 89.5520847h33.61611864c.48407064-.01875759.86782286-.46308876.86782286-1.00481701s-.38375222-.98605943-.86782286-1.004817h-33.61611864c-.48407065.01875757-.86782286.46308875-.86782286 1.004817s.38375221.98605942.86782286 1.004817z"/>
      <path fill="rgb(230,230,230)" fill-rule="evenodd" d="M269.40080625 80.07228605l5.25210677 5.36170353c.60065917.61319292 2.25282378 1.87914847 2.62602942 2.68085176.77166859 1.65762652-.05746831 1.27946699-1.3797127 1.85386728-3.24905407 1.44603617-6.24296504 3.52529777-8.84255571 6.14112667-.86927189.85672708.4055544 2.27356594 1.27055584 1.4210189 2.3708929-2.38329054 5.09482819-4.2864977 8.04968465-5.6242957 1.05952524-.46878062 3.06967642-.74329663 3.57309765-2.15486355.61611783-1.72761537-1.34615407-3.0023932-2.27585902-3.95149646l-7.00280903-7.14899162c-.85260936-.87041268-2.1268367.5468549-1.27055584 1.4210323l.00001797.00004689z"/>
      <path fill="rgb(44,151,227)" fill-rule="evenodd" d="M48.26632813 130.36814658h24.73841712c1.68821477-10.91536965 1.68821477-22.07389795 0-32.9892676H48.26632813c2.78698876 10.77552874 2.78698876 22.21373885 0 32.9892676z"/>
      <path fill="rgb(44,151,227)" fill-rule="evenodd" d="M240.52613794 66.0598584h24.73841712c1.68821476-10.91536966 1.68821476-22.07389796 0-32.98926761h-24.73841712c2.78698876 10.77552874 2.78698876 22.21373886 0 32.9892676z"/>
      <path fill="rgb(242,242,242)" fill-rule="evenodd" d="M162.2079844 120.26520732V38.84287594l-6.5883424-1.64254086v90.43353026l49.71203806-.56872642-.16770327-7.29095217-42.9559924.49102057z"/>
      <path fill="rgb(63,61,86)" fill-rule="evenodd" d="M151.42730713 134.43389893h59.89404297V26.58355713h-59.89404297v107.8503418zm58.696167-1.33978272h-57.4982605V27.92327881h57.4982605v105.1708374z"/>
      <rect width="9.701" height="1.34" x="156.818" y="33.282" fill="rgb(63,61,86)" rx="0" ry="0"/>
      <rect width="9.701" height="1.34" x="156.818" y="36.632" fill="rgb(63,61,86)" rx="0" ry="0"/>
      <rect width="9.701" height="1.34" x="156.818" y="39.981" fill="rgb(63,61,86)" rx="0" ry="0"/>
      <rect width="41.445" height="1.34" x="161.609" y="97.591" fill="rgb(63,61,86)" rx="0" ry="0"/>
      <rect width="41.445" height="1.34" x="161.609" y="104.959" fill="rgb(63,61,86)" rx="0" ry="0"/>
      <rect width="41.445" height="1.34" x="161.609" y="112.328" fill="rgb(63,61,86)" rx="0" ry="0"/>
      <path fill="rgb(63,61,86)" fill-rule="evenodd" d="M198.14465332 37.3015747c0 2.58972169 1.8770752 4.68914796 4.19256592 4.68914796 2.31445312-.0029297 4.19000244-2.10058594 4.19262695-4.68914795 0-2.58972168-1.87713623-4.68914795-4.19262695-4.68914795s-4.19256592 2.09942627-4.19256592 4.68914795zm1.19787598 0c0-1.84979247 1.34075927-3.34936523 2.99468994-3.34936523 1.6531372.00213623 2.99279785 1.50042725 2.99468994 3.34936524 0 1.84985351-1.34075928 3.34942627-2.99468994 3.34942627-1.65393067 0-2.99468994-1.49957276-2.99468994-3.34942627z"/>
      <path fill="rgb(63,61,86)" fill-rule="evenodd" d="M161.01037598 82.18341064h42.52478027V51.36901855h-42.52478027v30.8143921zm41.32684326-1.33972168h-40.12896729V52.70880127h40.12896729v28.1348877z"/>
      <rect width="1.198" height="54.819" x="181.674" y="39.367" fill="rgb(63,61,86)" rx="0" ry="0" transform="rotate(-57.47502 182.27337236 66.77628902)"/>
      <rect width="49.014" height="1.34" x="157.765" y="66.106" fill="rgb(63,61,86)" rx="0" ry="0" transform="rotate(-32.524302 182.27229377 66.77614105)"/>
      <path fill="rgb(242,242,242)" fill-rule="evenodd" d="M314.33879964 120.26520732V38.84287594l-6.5883424-1.64254086v90.43353026l49.71203805-.56872642-.16770326-7.29095217-42.9559924.49102057z"/>
      <path fill="rgb(63,61,86)" fill-rule="evenodd" d="M304.15704346 133.09411621h59.89404297V25.24377441h-59.89404297v107.8503418zm58.69610595-1.33972168h-57.49822998V26.58355713h57.49822998v105.1708374z"/>
      <rect width="9.701" height="1.34" x="309.547" y="31.942" fill="rgb(63,61,86)" rx="0" ry="0"/>
      <rect width="9.701" height="1.34" x="309.547" y="35.292" fill="rgb(63,61,86)" rx="0" ry="0"/>
      <rect width="9.701" height="1.34" x="309.547" y="38.641" fill="rgb(63,61,86)" rx="0" ry="0"/>
      <path fill="rgb(63,61,86)" fill-rule="evenodd" d="M350.87438965 35.96185303c0 2.58972168 1.8770752 4.68914795 4.19256592 4.68914795 2.31445312-.0029297 4.19000244-2.10058594 4.19262695-4.68914795 0-2.58972168-1.87713623-4.68914795-4.19262695-4.68914795-2.31549073 0-4.19256592 2.09942627-4.19256592 4.68914795zm1.19787597-.00006104c0-1.84979248 1.34075928-3.34936523 2.99468995-3.34936523 1.6531372.00213623 2.99279785 1.50042724 2.99468994 3.34936523 0 1.84985352-1.34075928 3.34942627-2.99468994 3.34942627-1.65393067 0-2.99468995-1.49957275-2.99468995-3.34942627z"/>
      <path fill="rgb(63,61,86)" fill-rule="evenodd" d="M313.7401123 80.84368896h42.52478028V50.02929688H313.7401123v30.81439208zm41.32684327-1.33978271h-40.12896729v-28.1348877h40.12896729v28.1348877z"/>
      <rect width="1.198" height="54.819" x="334.404" y="38.027" fill="rgb(63,61,86)" rx="0" ry="0" transform="rotate(-57.47513 335.00246098 65.4364867)"/>
      <rect width="49.014" height="1.34" x="310.495" y="64.766" fill="rgb(63,61,86)" rx="0" ry="0" transform="rotate(-32.518412 335.00203641 65.43633657)"/>
      <path fill="rgb(63,61,86)" fill-rule="evenodd" d="M313.7401123 121.03637695h42.52478028V90.22198486H313.7401123v30.8143921zm41.32684327-1.33978271h-40.12896729v-28.1348877h40.12896729v28.1348877z"/>
      <rect width="1.198" height="54.819" x="334.404" y="78.219" fill="rgb(63,61,86)" rx="0" ry="0" transform="rotate(-57.47513 335.0024654 105.629171)"/>
      <rect width="49.014" height="1.34" x="310.495" y="104.959" fill="rgb(63,61,86)" rx="0" ry="0" transform="rotate(-32.518412 335.00203981 105.6290108)"/>
      <path fill="rgb(44,151,227)" fill-rule="evenodd" d="M172.24695315 155.15363265h24.73841711c1.68821477-10.91536965 1.68821477-22.07389795 0-32.9892676h-24.73841711c2.78698876 10.77552874 2.78698876 22.21373886 0 32.9892676z"/>
      <ellipse cx="470.42" cy="132.776" fill="rgb(255,184,184)" rx="17.529" ry="19.605" transform="rotate(-28.66323 470.41997957 132.77571551)"/>
      <ellipse cx="497.9" cy="108.434" fill="rgb(47,46,65)" rx="15.507" ry="17.343"/>
      <path fill="rgb(47,46,65)" fill-rule="evenodd" d="M511.27560184 122.7949413c-4.07253702 3.29211004-9.31884712 4.1731727-14.07625892 2.3639598-4.75741179-1.80921291-8.43614328-6.08441111-9.8703233-11.47068998.72927735 6.48590623 4.65711995 11.96230099 10.15991452 14.16546134 5.50279457 2.20316035 11.64572523.75881297 15.88954972-3.73600662 4.2438245-4.49481958 5.86760104-11.27653049 4.20012525-17.5418442.70754053 6.28849573-1.70932644 12.50766269-6.30300727 16.21911967z"/>
      <path fill="rgb(47,46,65)" fill-rule="evenodd" d="M450.07899293 122.8142137c2.707084-5.42047193 3.74292116-7.68475336 7.233401-10.98086127 3.08662044-2.915088 6.88327254-3.7711653 9.94558798-1.00905733 7.43909695-3.5948622 16.10584152-1.30277728 21.31751035 5.63781977 5.21166884 6.94059704 5.73256623 16.88407865 1.28124644 24.45788846-4.4513198 7.57380981-12.81944114 10.9821844-20.58298961 8.38354703-7.76354848-2.59863738-13.08177328-10.5881453-13.0811877-19.65171773.0027589-.77509185.04447502-1.54939736.12495092-2.31925162-2.66191194-.41811105-3.5766374-4.10025626-6.23851938-4.51836731z"/>
      <path fill="rgb(255,184,184)" fill-rule="evenodd" d="M427.97153452 400.3907709l-8.01681481-2.60448566 5.16645831-35.82574543 11.83266294 3.84442986-8.98230644 34.58580124z"/>
      <path fill="rgb(47,46,65)" fill-rule="evenodd" d="M413.88791991 393.12179991l16.63465418 4.83186797-3.1627125 10.88825873-25.1970888-7.31899835.3810093-1.31169928c1.53629225-5.28898774 6.61523576-8.46303325 11.34413782-7.08942907z"/>
      <path fill="rgb(255,184,184)" fill-rule="evenodd" d="M510.82413268 400.60513187l-8.3486277-.00066988-3.97157257-36.01599077 12.32139815.00066987-.00119788 36.01599078z"/>
      <path fill="rgb(47,46,65)" fill-rule="evenodd" d="M495.29082777 397.9363915h17.32217763v11.33830147h-26.2385168v-1.36591474c-.00000159-2.64484079.93939504-5.1813564 2.61153316-7.05154188 1.67213813-1.87018548 3.9400448-2.92084485 6.30480601-2.92084485z"/>
      <path fill="rgb(255,184,184)" fill-rule="evenodd" d="M491.18055261 275.23128753c-1.28939164-1.74862516-1.82004813-4.04620078-1.44918094-6.27449747.37086718-2.2282967 1.60516172-4.1584187 3.37076084-5.27101066l-4.33486576-26.78144117 11.62801704 5.5583797 2.33375858 24.5799541c1.50759822 3.51852679.4239824 7.74212519-2.52232425 9.8312376-2.94630665 2.08911241-6.824038 1.38341395-9.0261655-1.6426489v.0000268z"/>
      <path fill="rgb(44,151,227)" fill-rule="evenodd" d="M497.41465181 211.10921873l-13.6424147-46.32069059c-.28462838-.53121325-3.68027801-6.50874232-11.07469212-3.96595242-1.64978909.51899588-3.03300123 1.78050446-3.81956155 3.48349289-2.16450407 4.64106217-.1456383 11.8108535-.13664222 11.8488021l16.79598468 42.09568294.01747708.04350188 5.3014834 43.23101227 11.44895188-2.59970274-4.89058645-47.81614633z"/>
      <path fill="rgb(47,46,65)" fill-rule="evenodd" d="M406.73801374 382.47009412l20.53388074-70.4228877 23.8081791-60.86469993-.34275551-29.51944023 28.2527707-7.36832978 3.29007445 12.37115287c19.02812108 14.04257887 12.75972058 41.05554327 12.31241405 42.86597566l28.67075313 118.34042676-31.26173257 3.8848503-20.98387052-112.0465813-19.35251908 45.52815122-13.6833882 68.10314706-31.2438063-10.87176493z"/>
      <path fill="rgb(44,151,227)" fill-rule="evenodd" d="M448.70038228 196.88281194c-5.61732853-12.04275858-1.55604668-16.62854241 4.58527069-23.56478749 2.50993177-2.73965736 4.86498844-5.65136085 7.05151484-8.71822773 9.58121671-13.77698564 20.70117073-7.0108226 20.81244185-6.9404988l.06258326.03924815 2.74743461 4.6090085c9.05384985 10.1911086-4.67600414 38.19482257-5.7187411 40.28034036l.6886495 20.02438176-29.19773667 3.10996222-1.03141698-28.83942697z"/>
      <path fill="rgb(255,184,184)" fill-rule="evenodd" d="M459.82460076 274.18916502c-.85186209-2.05660138-.8454949-4.42958353.01738829-6.48042948.8628832-2.05084596 2.49364547-3.56888913 4.45348481-4.1456577l1.86465663-27.13672436 9.99226339 8.66800698-3.30264021 24.44059938c.66260966 3.83067098-1.34120262 7.61022905-4.66425173 8.79763564-3.32304911 1.18740659-6.9149814-.59265532-8.36090118-4.14343046z"/>
      <path fill="rgb(44,151,227)" fill-rule="evenodd" d="M461.94060264 261.46654056l4.71670812-43.93885896-6.72330758-45.46796938c-.01579405-.31890882-.34999072-7.85929007 2.96223853-11.94626935 1.25245122-1.56067952 3.02802733-2.46973232 4.90272697-2.51007976 8.40051987-.41147257 10.40907188 7.41608538 10.42830385 7.49491662l2.73580918 48.84581581-6.17189327 48.32116736-12.8505858-.79872234z"/>
      <path fill="rgb(204,204,204)" fill-rule="evenodd" d="M355.12169318 409.89518757h228.19622286c.33078555 0 .59894021-.2999146.59894021-.669878 0-.36996341-.26815466-.669878-.59894021-.669878H355.12169318c-.33078555 0-.59894022.29991459-.59894022.669878 0 .3699634.26815467.669878.59894022.669878z"/>
    </g>
  </g>
</svg>
