<svg xmlns="http://www.w3.org/2000/svg" xmlns:xlink="http://www.w3.org/1999/xlink" width="902" height="378.745" viewBox="0 0 902 378.745">
  <defs>
    <rect id="rect-1" width="902" height="378.745" x="0" y="0"/>
    <mask id="mask-2" maskContentUnits="userSpaceOnUse" maskUnits="userSpaceOnUse">
      <rect width="902" height="378.745" x="0" y="0" fill="black"/>
      <use fill="white" xlink:href="#rect-1"/>
    </mask>
  </defs>
  <g>
    <use fill="none" xlink:href="#rect-1"/>
    <g mask="url(#mask-2)">
      <path fill="rgb(230,230,230)" fill-rule="evenodd" d="M548.58054253 193.16086475l52.80110208-53.79068484-52.80110208-53.79068484 16.09788658-16.39490311 68.89898866 70.18558795-68.89898866 70.18558795-16.09788658-16.39490311z"/>
      <rect width="21.464" height="21.933" x="397.796" y="117.791" fill="rgb(230,230,230)" rx="0" ry="0"/>
      <rect width="21.464" height="21.933" x="484.082" y="117.791" fill="rgb(230,230,230)" rx="0" ry="0"/>
      <rect width="21.464" height="21.933" x="440.939" y="117.791" fill="rgb(230,230,230)" rx="0" ry="0"/>
      <path fill="rgb(230,230,230)" fill-rule="evenodd" d="M368.71338752 192.61288696l-52.85481285-53.79068484 52.80110208-53.79068484-16.09788658-16.39490312-68.84527788 70.18558796 68.89898866 70.18558795 16.09788657-16.39490311z"/>
      <path fill="rgb(44,151,227)" fill-rule="evenodd" d="M548.58054253 182.74318839l52.80110208-53.79068484-52.80110208-53.79155603 16.09788658-16.39490311 68.89898866 70.18645914-68.89898866 70.18558795-16.09788658-16.39490311z"/>
      <path fill="rgb(44,151,227)" fill-rule="evenodd" d="M397.79656982 132.7902832h21.4638672v-21.93304443h-21.46392823l.00006103 21.93304443zm64.60620118 0h-21.4638672v-21.93304443h21.4638672v21.93304443zm43.14239502-21.93304443h-21.4638672v21.93304443h21.4638672v-21.93304443z"/>
      <path fill="rgb(44,151,227)" fill-rule="evenodd" d="M368.71338752 182.1943394l-52.85481285-53.79068483 52.80110208-53.79068484-16.09788658-16.39490312-68.84527788 70.18558796 68.89898866 70.18558795 16.09788657-16.39490311z"/>
      <path fill="rgb(160,97,106)" fill-rule="evenodd" d="M110.2392344 357.57859551l12.01586768 2.96814044 16.92230435-45.94562917-17.73393384-4.38120877-11.20423819 47.3586975z"/>
      <path fill="rgb(47,46,65)" fill-rule="evenodd" d="M104.55020616 368.60410905l3.68975974-15.59602293 23.50863503 5.80751045c8.23749325 2.04493156 13.30054336 10.51776828 11.317764 18.93988099l-.08136756.34324841-38.4347912-9.49461692z"/>
      <path fill="rgb(160,97,106)" fill-rule="evenodd" d="M163.4308053 365.94287973l12.36200377-.00087118 5.88005104-48.72297926-18.24375992.0008712.0017051 48.72297924z"/>
      <path fill="rgb(47,46,65)" fill-rule="evenodd" d="M160.43609709 361.9802685l24.18591938-.001028h.00067351c8.48079233-.0000385 15.35592151 7.02514768 15.35616635 15.691331v.35329321l-39.5420431.00174238-.00071614-16.04533859z"/>
      <path fill="rgb(47,46,65)" fill-rule="evenodd" d="M160.53004832 349.08309282l2.03236457-75.79981645-2.7376382-30.73629212-5.3418435 23.65364868-23.34237886 77.78403618-20.12299764-5.41131118 23.3052076-83.86951687-5.06170344-53.79429156 14.54261862-9.55282976.19619779.03622404 49.68554463 9.35863305L181.683014 346.92178652l-21.1529657 2.1613063z"/>
      <path fill="rgb(204,204,204)" fill-rule="evenodd" d="M180.19418543 211.30457495c-4.00121403 0-8.68061611-1.31710687-13.8895297-5.07424821-16.66824386-12.02102976-36.54264586.91061015-36.74179348 1.04141045l-.80694045.53630386.02831325-.9830495c.0201799-.70031388 2.01636217-70.31503791 2.01636217-92.71599542 0-23.14353276 14.77647363-40.04158229 19.30546849-44.66910228 4.44505259-4.54297111 8.1853516-4.44235751 12.92012694-4.31658398.81579847.02113505 1.66630433.04427382 2.5608786.04427382 6.18743866 0 12.20303694 6.07440787 12.45609994 6.33300286l.1208663.1237611.02240506.17307037 17.16922898 132.09954262-.13145499.17004735c-.079509.10363663-5.71749495 7.23756696-15.03003111 7.23756696z"/>
      <ellipse cx="168.215" cy="32.063" fill="rgb(160,97,106)" rx="24.765" ry="25.306" transform="rotate(-61.336822 168.21543265 32.06252824)"/>
      <path fill="rgb(160,97,106)" fill-rule="evenodd" d="M206.12596076 232.45616923c-2.37183148-1.87822523-3.8076979-4.73352564-3.92123315-7.79759068-.11353526-3.06406504 1.1069234-6.02214266 3.33297228-8.07826682l-14.06390216-33.89869026 18.41461134 3.46322835 10.53214588 31.65982202c3.20271579 4.14121643 2.86814125 10.075756-.77878414 13.81373898-3.64692539 3.73798297-9.45346764 4.09789353-13.51580153.83775841h-.00000852z"/>
      <path fill="rgb(204,204,204)" fill-rule="evenodd" d="M202.1422752 213.16000685l-25.41240919-52.9742502-11.14279476-39.87054178.00886654-34.63630844c.02510765-.13684634 2.64461626-13.60981688 12.3536914-12.6780804 8.80394627.8713631 13.5456358 5.27045737 15.85490926 14.70958828 1.96172212 8.01842224-.72125898 31.8068874-.98098042 34.05171458 1.70348413 4.12741402 27.26113407 66.35363762 23.02998677 73.84678526-.1582851.29197977-.38894827.5362751-.66883556.70836366l4.52875615 9.77017396-17.5711902 7.07255508z"/>
      <path fill="rgb(47,46,65)" fill-rule="evenodd" d="M165.048463 41.59675023c2.96870537.39471824 5.20808662-2.70912728 6.24672513-5.57828324 1.0386385-2.86915596 1.83002841-6.20944215 4.41110397-7.75930455 3.52629994-2.1174158 8.03804767.42927831 12.07055036-.26932804 4.55395758-.78893991 7.51487062-5.72074004 7.74692675-10.43468196.23205612-4.71394193-1.60373554-9.24776556-3.40499885-13.59397867l-.62884234 5.40137092c.17098172-3.72261001-1.56381752-7.2684568-4.58059983-9.36252727l.81052117 7.92565806c-.34835944-2.20847224-1.54321196-4.18420089-3.32039235-5.4903799-1.77718039-1.306179-3.99030364-1.83521939-6.15007907-1.47015772l.1276526 4.72240117c-5.25981946-.63912157-10.56560001-1.27914046-15.84098708-.7922243-5.27538707.48691617-10.58762144 2.19249487-14.58592826 5.742694-5.98083121 5.31054077-8.16516318 14.05497697-7.43183206 22.11672344.73333111 8.06174647 3.9900115 15.63516545 7.3842085 22.9511394.85398428 1.84071752 2.03516948 3.91784084 4.0154346 4.15232132 1.779276.2106796 3.40736041-1.30918776 3.9604791-3.05008446.42617565-1.78624788.4096695-3.65290463-.04802426-5.43099134-.50044802-2.71732517-1.13123418-5.49477979-.6607278-8.21767185.4705064-2.72289206 2.3874269-5.41363726 5.07353687-5.74732873 2.68610996-.33369146 5.4346182 2.80375582 4.14319804 5.23353639l.66207482-1.04890267z"/>
      <path fill="rgb(255,184,184)" fill-rule="evenodd" d="M778.031456 229.08156692c-1.67316062-1.94896478-2.41558006-4.55513624-2.02748715-7.11724242.38809292-2.56210619 1.866832-4.81695914 4.03831625-6.15782014l-6.3379567-30.45066415 14.74057266 5.90172082 3.75874824 28.01168382c2.0066547 3.96402927.79472532 8.83524568-2.82098539 11.33863949-3.6157107 2.5033938-8.49232666 1.8476769-11.35120792-1.5263v-.00001742z"/>
      <path fill="rgb(204,204,204)" fill-rule="evenodd" d="M776.3574105 205.32240856l-.07909126-.29915754c-7.9685391-30.11778289-16.2056321-61.2515985-26.2620966-95.15066336l-.06597047-.22206604.22185108-.13225518c5.60521386-3.34234219 14.03008994-3.11977086 19.59675993.51719869 5.16179144 3.39719167 7.69676538 9.72781845 6.34604742 15.8480753l7.3346923 39.07917123c2.98198812 12.77424223 6.06814958 25.9967024 9.01770663 39.03435729l.08364387.36961058-.45678883.02980338c-5.37048924.34898083-10.91893166.70991437-15.36418886.90917269l-.37256522.01675296z"/>
      <path fill="rgb(255,184,184)" fill-rule="evenodd" d="M708.63609452 367.41867366h-10.45228734l-4.97378828-41.19590752h15.42607562v41.19590752z"/>
      <path fill="rgb(47,46,65)" fill-rule="evenodd" d="M711.3021695 377.7721347h-33.7020279v-.43559444c.00821758-7.39984713 5.87667106-13.39647647 13.1182174-13.40473902h20.58384461l-.0000341 13.84033345z"/>
      <path fill="rgb(255,184,184)" fill-rule="evenodd" d="M807.12716257 358.60834074l-9.95951229 3.24256493-16.97942533-37.70853852 14.69884877-4.78631159 12.24008885 39.25228518z"/>
      <path fill="rgb(47,46,65)" fill-rule="evenodd" d="M780.6317566 378.1013831l-.12926393-.41518248c-2.19068134-7.05304578 1.61898879-14.58718408 8.51614177-16.841823l19.61223375-6.38588402 4.11206283 13.1869418-32.11117442 10.4559477z"/>
      <ellipse cx="754.225" cy="60.875" fill="rgb(255,184,184)" rx="20.94" ry="21.397"/>
      <path fill="rgb(47,46,65)" fill-rule="evenodd" d="M763.62597036 56.9098023c.11901626-8.63029302-3.41559607-17.17748335-8.88067596-21.47476178-5.31146347-4.3000847-12.85675707-4.16383187-18.01622232.32533677-5.38045558 4.49312168-8.74937442 13.16497913-8.46432367 21.78798031 12.0556989.03505664 24.1113978.07007843 35.36122195-.6385553z"/>
      <path fill="rgb(47,46,65)" fill-rule="evenodd" d="M714.60351509 354.15815124l-.41919982-.04168639c-9.09312338-.91203019-18.49596185-1.8538289-27.38219644-1.9619173l-.4833032-.00595022.065979-.48919868c2.10536008-15.5818574 2.9978797-31.78052523 3.86104596-47.44660917.85234737-15.4687074 1.7334087-31.46361286 3.78611516-46.65496857.86836682-4.0679641 1.71467813-8.08742911 2.5580737-12.09242368 6.97859838-33.14263772 13.57026603-64.44756353 27.17654386-95.43559439l.12863304-.29266718.3115907.03828875c12.76642887 1.5785942 25.03372265 6.3382387 34.54146764 13.40175955l.1842109.13655015-.00895179.23268583c-.1833754 4.81323132-.3731961 9.78895678-.0922035 14.32147363 8.74896467 12.42269604 11.26141666 28.33051777 6.7810706 42.93497472 3.74365808 12.78495785 7.61406505 26.00082312 11.56316258 39.0375981 9.5899651 26.86605306 19.51336329 54.66838149 29.68571518 82.85100127l.16692968.46196532-.46936397.11230495c-7.31892008 1.75598569-14.86887322 3.5664294-22.3170487 4.26916517l-.28119722.02637089-.133629-.25438715c-18.9939091-36.11958246-34.44041803-74.07263057-46.11336886-113.30346006-2.54184112 7.92109303-6.20348369 15.07096612-9.75085872 21.99664747-3.39261686 6.29908534-6.37786775 12.81846032-8.93658631 19.51626825-1.57001711 13.17332513-1.98651433 27.44584666-2.38885066 41.24790007-.38069004 13.04996479-.74015154 25.37592807-1.98755445 36.965972l-.04622536.42793667z"/>
      <path fill="rgb(47,46,65)" fill-rule="evenodd" d="M747.07581348 35.83087389c9.07635368-1.9982633 19.11596323-.0971724 26.24392019 6.16049875 7.12795695 6.25767116 10.74762839 17.08323815 7.81934251 26.36750652-2.92828588 9.28426837-12.87006508 15.8166428-21.85917713 13.41907879 2.57499687-7.41584705-.32284438-16.5207812-6.61760228-20.79235956-7.46505601-5.06577154-9.5201752-17.15989405-5.5864833-25.1547245z"/>
      <path fill="rgb(204,204,204)" fill-rule="evenodd" d="M758.09553384 164.10753526l-.33199227-.15441823c-11.57875575-5.3981388-22.93230989-9.5401104-33.56985677-13.31923183l-.32616081-.0718905-.00085255-.9664795.21168013.07529685c.04453731-.1003871.09470147-.21439087.14507024-.32796776.14528339-.3284382.24435845-.55215078.3286588-.7001919l-.00228484-.00127194c.88689277-1.84659804 1.59186801-3.63111516 2.27353448-5.3568793.7035259-1.78108464 1.42972967-3.62002493 2.36803986-5.56573813-4.64878178-4.76381195-6.08167814-11.89548193-3.64582773-18.14565295 2.34993167-5.69123288 8.34152208-10.12374596 14.63700465-10.85923844 2.30684369-6.48925058 7.44693076-20.12454102 7.44693076-20.12454102s10.80884162-.3033044 15.15568875-.86693746l.07305518-.00935657.07181045.01616056c9.48963679 2.12482962 17.4121722 11.30078308 19.2658845 22.31443103 1.56481654 9.29551542-.81133962 19.92801824-6.69032497 29.93903235-3.01624263 4.89565136-6.35141891 9.57837513-9.98293189 14.01644428-2.64802646 3.38351458-5.14903034 6.57900917-7.22629883 9.79747702l-.20082714.31095344z"/>
      <path fill="rgb(47,46,65)" fill-rule="evenodd"/>
      <path fill="rgb(47,46,65)" fill-rule="evenodd" d="M779.0541603 48.51073151c-6.35362661-.96913662-11.34219814-7.60587948-10.61997578-14.12871439.72222236-6.5228349 7.0357705-11.8528816 13.44068665-11.34692995 6.40491615.50595164 11.84180214 6.7642152 11.57439068 13.32297794-.26741145 6.55876274-6.2828989 13.39005078-14.39510155 12.1526664z"/>
      <path fill="rgb(47,46,65)" fill-rule="evenodd" d="M778.06223312 44.28120544c-6.35354989-.96912791-11.34210437-7.6058882-10.6198479-14.12868825.64023647-4.5096005 3.4987384-8.36871466 7.5722218-10.22286111-5.12383744 1.14598795-9.53355175 5.70845627-10.12987776 11.09404996-.72225646 6.52280007 4.26629802 13.15956035 10.6198479 14.12868825 2.36757683.37967418 4.79216376.03315231 6.96695252-.99571659-1.45058356.311211-2.94410579.3533912-4.40929656.12452774z"/>
      <path fill="rgb(255,184,184)" fill-rule="evenodd" d="M654.81853733 159.25872458c1.24081952-2.26141427 3.39815063-3.84505513 5.89149365-4.3247928s5.06657245.19370829 7.02727773 1.83912547l25.98485522-16.25216754-.53412382 16.16849856-24.59378024 12.95457831c-2.98899873 3.25407383-7.88739873 3.70940742-11.40194258 1.05987414-3.51454384-2.64953328-4.53434584-7.5664624-2.37377996-11.44507258v-.00004356z"/>
      <path fill="rgb(204,204,204)" fill-rule="evenodd" d="M676.18312348 149.72963472l.24967837-.1758756c25.13441756-17.71226264 51.116843-36.02180365 79.04454484-57.00559824l.18292356-.137552.19594202.16968145c4.95151962 4.2868503 7.55320136 12.47814255 6.05214718 19.05329235-1.41473078 6.10513173-6.41132264 10.65677668-12.50846368 11.39458399l-33.61420653 20.0873761c-10.79315467 7.12925206-21.96514933 14.50820426-33.01209168 21.69398776l-.31316792.20372751-.17969238-.43017563c-2.11137057-5.0580354-4.29306815-10.28355684-5.95801692-14.50006735l-.13959686-.35338034z"/>
      <path fill="rgb(63,61,86)" fill-rule="evenodd" d="M325.67485822 378.7453659H.85255198C.38170053 378.7453659 0 378.35532136 0 377.87417704c0-.48114432.38170053-.87118886.85255198-.87118886h324.82230624c.47085146 0 .85255199.39004454.85255199.87118886 0 .48114432-.38170053.87118886-.85255199.87118886z"/>
      <path fill="rgb(63,61,86)" fill-rule="evenodd" d="M901.14744802 378.7453659H576.32514178c-.47085146 0-.85255199-.39004454-.85255199-.87118886 0-.48114432.38170053-.87118886.85255199-.87118886h324.82230624c.47085145 0 .85255198.39004454.85255198.87118886 0 .48114432-.38170053.87118886-.85255198.87118886z"/>
    </g>
  </g>
</svg>
