<svg xmlns="http://www.w3.org/2000/svg" xmlns:xlink="http://www.w3.org/1999/xlink" width="749.484" height="335.681" viewBox="0 0 749.484 335.681">
  <defs>
    <rect id="rect-1" width="749.484" height="335.681" x="0" y="0"/>
    <mask id="mask-2" maskContentUnits="userSpaceOnUse" maskUnits="userSpaceOnUse">
      <rect width="749.484" height="335.681" x="0" y="0" fill="black"/>
      <use fill="white" xlink:href="#rect-1"/>
    </mask>
  </defs>
  <g>
    <use fill="none" xlink:href="#rect-1"/>
    <g mask="url(#mask-2)">
      <path fill="rgb(255,185,185)" fill-rule="evenodd" d="M164.50691682 187.26868138c.01866424-2.80839738-1.46567246-5.39206938-3.8456309-6.69379722-2.37995843-1.30172785-5.25616345-1.1030717-7.451694.5146799-2.19553055 1.61775159-3.34195988 4.38312756-2.97017789 7.16455727l-20.59506287 28.20094454c-1.7968951 3.7574454-1.26510676 8.27501525 1.34957023 11.46466986l1.61558057 1.97061853 7.41261969-1.55023416 8.40136597-7.75114004-.98851838-8.78461666 10.37803515-17.0524758-.01341668-.01223787c3.77016603-.25105277 6.70566422-3.52076172 6.70732911-7.47096835z"/>
      <path fill="rgb(255,184,184)" fill-rule="evenodd" d="M22.08494576 325.13968139l-3.36188732-13.05576864 46.55916198-19.77044946 4.96159578 19.2684819-48.15887044 13.5577362z"/>
      <path fill="rgb(47,46,65)" fill-rule="evenodd" d="M10.83927462 331.87657024L0 289.78038743l.50920132-.14337208c8.65403308-2.43602539 17.55825898 2.92415477 19.88902242 11.97282553l.00027201.00103776 6.62018323 25.71093949-16.17940436 4.5547521z"/>
      <path fill="rgb(255,184,184)" fill-rule="evenodd" d="M86.21811088 323.05340277l-10.45691783-7.95153502 24.3565906-45.96039514 15.43395197 11.73589377-29.33362474 42.17603639z"/>
      <path fill="rgb(47,46,65)" fill-rule="evenodd" d="M81.51374763 335.68116912l-33.7189432-25.64055642.31014201-.44596704c5.27131444-7.57873066 15.41990146-9.25487138 22.66851588-3.7439323l.00083809.00063035 20.5943277 15.66049595-9.85488048 14.16932946z"/>
      <path fill="rgb(47,46,65)" fill-rule="evenodd" d="M175.10952133 258.8278305l-26.3150572-26.73006431c-4.7483056-4.82319157-12.16752568-5.25653823-17.4000128-1.01631134l-49.68676846 57.71755142 4.44785118 7.2342057 47.44192757-33.58827094 32.12235916 43.92306028 30.63973965-16.0186917-21.2500391-31.52147912z"/>
      <path fill="rgb(255,185,185)" fill-rule="evenodd" d="M163.74331333 264.51205571l-19.27349489-1.55023415-13.95775041-3.53815635c-1.61447485-2.63371307-4.62323473-3.94232128-7.54775982-3.28276796-2.92452509.65955332-5.14994724 3.14860008-5.58268276 6.24401012-.43273552 3.09541004 1.01819627 6.14638743 3.63980016 7.65366645 2.6216039 1.50727902 5.86269954 1.15396108 8.13059616-.88633158l-.0020364.0104852 8.40135862 3.61718741 36.0756387 12.91856161 4.44771885-3.61718741-14.3313882-17.56923334z"/>
      <path fill="rgb(47,46,65)" fill-rule="evenodd" d="M210.19698718 320.32063914l-10.8722833 7.2343287h-12.84912893L126.6791195 304.3014939l-87.47155892 16.53571827-2.47087323-19.63669394 80.05893923-36.68821654 70.17471114 24.28662001 23.22664946 31.52171743z"/>
      <ellipse cx="186.97" cy="174.599" fill="rgb(255,185,185)" rx="19.274" ry="20.153"/>
      <path fill="rgb(204,204,204)" fill-rule="evenodd" d="M236.83880837 255.0608369c-.00023113 12.16263796-1.8330831 24.24929448-5.43114257 35.81541565l-1.44301643 4.64037101-6.9186656 33.07151342-7.41282553 2.06695325-5.43608284-7.2343825-10.87216568-8.26785914-7.90702959-13.4352884-6.78026434-11.81276475-2.11514394-3.68955376-7.4128476-38.75565408-28.16878555-16.53571828-9.38959028-1.55023415 1.97676475-5.68416373 8.40121893-11.8850696 8.40117483-1.03352276 2.4709541-2.06696863 1.9767574 1.03347663 10.89696263 4.38943336 35.32950262-15.60788544 5.16921971.8836397 17.79078717 15.50227239c4.54807887 12.85389684 6.875663 26.45056298 6.8742178 40.1559898z"/>
      <g opacity=".1">
        <path fill="rgb(0,0,0)" fill-rule="evenodd" d="M231.44679102 250.56021734l-18.7789306 12.91816957-28.03018582 26.42593961-2.11505572-3.68903872-5.93053685-31.00437567h1.482818l15.32000216-29.45388784 38.05188883 24.80319305z"/>
      </g>
      <path fill="rgb(204,204,204)" fill-rule="evenodd" d="M193.39490219 222.65604862l-15.32000216 29.45388784-8.89543769 10.33530437-7.9066473 2.06706087 21.24980384 24.28662001 30.14524153-28.42074175 18.77893061-12.91893828-38.05188883-24.80319306z"/>
      <path fill="rgb(47,46,65)" fill-rule="evenodd" d="M171.97940795 159.61435875l-2.08822238.84009228c-.64020545-.45324607-1.08199628-1.15385552-1.22818326-1.94770181-.14618698-.79384629.01520481-1.61590144.44867091-2.28532215 0 0 .01687193-.02608232.03426582-.0517726l-3.85898055-.1888259c5.0109166-6.97833683 12.64278804-11.3752316 20.96137937-12.07632757 8.31859134-.70109597 16.52542732 2.36090286 22.540553 8.4099581.17570327-.6327251 2.09093511.5982869 2.87288085 1.84651032.26273888-1.02958696 2.0585219 3.94748667 2.6936782 7.46561813.29406407-1.17139087 1.4246742.71966619.43415618 2.53420586.62760621-.0958735.91109131 1.58313494.42523868 2.51854725.68663957-.33729452.57088126 1.66698582-.17356396 3.00642435.97974792-.09102294-.0835877 21.0097789-14.7867905 19.47235914-1.02360757-4.91781378-.73516014-4.6122593-1.94050665-10.93596658-.5610154-.622655-1.17538874-1.18980147-1.7887549-1.75592555l-3.3174763-3.06200207c-3.8576058-3.5605258-7.36676774-7.9549481-12.50575767-9.28566946-3.53165785-.91451877-5.76470677-1.12098656-3.84006488-5.28219764-1.73888898.75876278-3.36270335 1.88712895-5.11717772 2.59185142.02356923-.58145215.2687819-1.23210357.23465576-1.81385552z"/>
      <ellipse cx="196.607" cy="176.924" fill="rgb(255,185,185)" rx="3.46" ry="3.618"/>
      <rect width="15.887" height="16.612" x="34.741" y="92.027" fill="rgb(230,230,230)" rx="0" ry="0" transform="rotate(-86.18995 42.68400047 100.3330292)"/>
      <path fill="rgb(204,204,204)" fill-rule="evenodd" d="M44.30697632 101.63549805l-19.24856568-1.34039307-1.28189086 20.12701416 19.24856567 1.34033203 1.28189087-20.12695312zm-18.46740723-.40704346l17.57479859 1.22381592-1.17044068 18.37677002-17.57476806-1.22381592 1.17041015-18.37677002z"/>
      <rect width="15.887" height="16.612" x="110.826" y="43.903" fill="rgb(230,230,230)" rx="0" ry="0" transform="rotate(-12.126754 118.76961122 52.20890072)"/>
      <path fill="rgb(204,204,204)" fill-rule="evenodd" d="M118.01751709 54.19824219l-4.0526123-19.72143555L95.104187 38.71435547l4.0526123 19.72143555 18.86071778-4.23754883zm-4.69644165-18.67974854l3.70019531 18.00653076-17.2206726 3.8690796-3.70019532-18.00653077 17.2206726-3.86907959z"/>
      <rect width="15.887" height="16.612" x="100.235" y="123.774" fill="rgb(230,230,230)" rx="0" ry="0" transform="rotate(-43.127135 108.17883606 132.0794614)"/>
      <path fill="rgb(204,204,204)" fill-rule="evenodd" d="M106.16085815 132.43023682l14.07946778-13.78967286-13.1878357-14.72198486-14.07946777 13.78967285 13.1878357 14.72198487zm12.8939209-13.8302002l-12.85516357 12.59057617-12.04107666-13.44177246 12.85516357-12.59057617 12.04107666 13.44177246z"/>
      <path fill="rgb(63,61,86)" fill-rule="evenodd" d="M708.16292754 0h-470.0487266c-3.43129615-.00000408-6.72205668 1.42527549-9.14835083 3.96229303-2.42629415 2.53701755-3.78937225 5.97795348-3.78937225 9.56584014v273.85458664c-.00000585 3.58789419 1.3630685 7.02884 3.78936222 9.56586864 2.42629373 2.53702863 5.7170575 3.96231991 9.14836085 3.96232603h470.0487266c7.14531597-.00002123 12.93772714-6.05679531 12.93772308-13.52819467V13.52813317C721.10063843 6.0567508 715.30822726.00000425 708.16292754 0z"/>
      <rect width="461.233" height="272.056" x="242.522" y="23.908" fill="rgb(255,255,255)" rx="0" ry="0"/>
      <ellipse cx="472.744" cy="11.541" fill="rgb(255,255,255)" rx="4.731" ry="4.947"/>
      <path fill="rgb(242,242,242)" fill-rule="evenodd" d="M571.85019605 295.96483523H242.52197853V23.90841475l329.32821752 272.05642048z"/>
      <ellipse cx="314.691" cy="229.248" fill="rgb(44,151,227)" rx="44.335" ry="46.359"/>
      <path fill="rgb(63,61,86)" fill-rule="evenodd" d="M269.41204834 206.425354c0 31.84771729 24.69085693 57.66534424 55.14855957 57.66540528 14.62634277 0 28.65362549-6.07543946 38.99597168-16.88977051 10.34240723-10.81439209 16.15270996-25.48175049 16.15270996-40.77557373 0-31.84771729-24.69085693-57.66540527-55.1486206-57.66540527-30.45770264 0-55.14862061 25.81762695-55.14862061 57.66534423zm.7208252 0c0-31.43139648 24.36816406-56.91156005 54.42773437-56.91156005 14.43511963.00006103 28.27905273 5.99609375 38.48620605 16.66906738 10.20721436 10.67297363 15.94152833 25.14868164 15.94152833 40.24261474-.00006104 31.43133545-24.36816407 56.91149903-54.42779541 56.91149903-30.05957032-.00006104-54.42767334-25.48022461-54.42767334-56.9116211z"/>
      <rect width="43.084" height="9.414" x="553.897" y="165.25" fill="rgb(63,61,86)" rx="0" ry="0"/>
      <rect width="124.607" height="4.034" x="513.135" y="114.251" fill="rgb(63,61,86)" rx="0" ry="0"/>
      <rect width="124.607" height="4.034" x="513.135" y="130.101" fill="rgb(63,61,86)" rx="0" ry="0"/>
      <rect width="124.607" height="4.034" x="513.135" y="145.952" fill="rgb(63,61,86)" rx="0" ry="0"/>
      <rect width="18.006" height="18.827" x="653.117" y="40.19" fill="rgb(44,151,227)" rx="0" ry="0"/>
      <path fill="rgb(204,204,204)" fill-rule="evenodd" d="M657.61865234 67.75756836h21.86364746v-22.8614502h-21.86364746v22.8614502zm20.91296387-.99395752h-19.96240234V45.89013672h19.96240234v20.87347412z"/>
      <path fill="rgb(63,61,86)" fill-rule="evenodd" d="M734.05098903 291.01794884h-45.01339221v-3.39120976c.00000585-.1783209-.06773459-.34934068-.18831919-.47543692-.1205846-.12609625-.2841357-.19693981-.45467393-.19694593H672.9613869c-.17054595-.00001631-.33411265.07081053-.4547158.1968988-.12060316.12608825-.18836314.29710895-.18837288.47543792v3.3912559h-9.6456098v-3.39120977c.00000194-.17832898-.06774681-.34935454-.1883417-.47545144-.12059488-.12609691-.28415693-.19693549-.45470288-.19693141h-15.4331433c-.17054527-.00000408-.33410657.07083474-.45470029.19693187-.12059372.12609713-.18834083.2971227-.18833693.47545098v3.39120976h-9.64570538v-3.39120976c.0000039-.17832827-.06774321-.34935385-.18833693-.47545098-.12059372-.12609713-.28415502-.19693595-.45470029-.19693187H620.2315039c-.17054595-.00000408-.334108.0708345-.45470289.1969314-.12059489.12609691-.18834364.29712247-.18834169.47545145v3.39120976H609.942776v-3.39120976c.00000195-.17832898-.0677468-.34935454-.18834168-.47545144-.12059489-.12609691-.28415694-.19693549-.4547029-.19693141h-15.433158c-.17053822-.00000612-.33409397.07082572-.45468684.19691331-.12059287.1260876-.18834453.29710251-.18835038.47542341v3.3912559h-9.64569802v-3.39120977c.00000195-.17832898-.0677468-.34935454-.18834169-.47545144-.12059488-.12609691-.28415693-.19693549-.45470288-.19693141h-15.433158c-.17054527-.00000408-.33410657.07083474-.4547003.19693187-.1205937.12609713-.18834083.2971227-.18833693.47545098v3.39120976h-9.64574948v-3.39120976c.0000039-.17832827-.06774322-.34935385-.18833693-.47545098-.12059372-.12609713-.28415502-.19693595-.4547003-.19693187h-15.433158c-.17054594-.00000408-.334108.0708345-.45470288.1969314-.12059489.12609691-.18834364.29712247-.18834169.47545145v3.39120976h-9.64569802v-3.39120976c.00000195-.17832898-.0677468-.34935454-.18834169-.47545144-.12059488-.12609691-.28415694-.19693549-.45470288-.19693141H409.3118543c-.17054527-.00000408-.33410657.07083474-.4547003.19693187-.1205937.12609713-.18834083.2971227-.18833693.47545098v3.39120976h-9.64574948v-3.39120976c.0000039-.17832827-.06774322-.34935385-.18833693-.47545098-.12059372-.12609713-.28415502-.19693595-.4547003-.19693187h-15.43311388c-.17054595-.00000408-.334108.0708345-.4547029.1969314-.12059488.12609691-.18834363.29712247-.18834168.47545145v3.39120976h-9.64574213v-3.39120976c.00000585-.1783209-.06773459-.34934068-.18831919-.47543692-.1205846-.12609625-.2841357-.19693981-.45467392-.19694593h-15.43321682c-.17054527-.00000408-.33410657.07083474-.45470029.19693187-.12059371.12609713-.18834083.2971227-.18833693.47545098v3.39120976h-9.64574213v-3.39120976c.0000039-.17832827-.06774322-.34935385-.18833694-.47545098-.12059371-.12609713-.28415501-.19693595-.45470028-.19693187h-15.433158c-.17054595-.00000408-.334108.0708345-.4547029.1969314-.12059488.12609691-.18834363.29712247-.18834168.47545145v3.39120976h-9.64569802v-3.39120976c.0000039-.17832827-.06774322-.34935385-.18833694-.47545098-.12059371-.12609713-.28415501-.19693595-.45470028-.19693187h-15.433158c-.17054595-.00000408-.334108.0708345-.4547029.1969314-.12059488.12609691-.18834363.29712247-.18834168.47545145v3.39120976h-9.64574213v-3.39120976c.00000195-.17832898-.0677468-.34935454-.1883417-.47545144-.12059488-.12609691-.28415693-.19693549-.45470288-.19693141h-15.4331727c-.35512411-.00000425-.64301693.30100618-.64303723.67233672v3.3912559h-9.64571272v-3.39120977c.0000039-.17832428-.0677402-.34934636-.18832914-.47544282-.12058895-.12609647-.28414458-.196938-.45468603-.19694003h-15.433158c-.35514084 0-.64304051.30103481-.64304457.67238285v3.39120976h-29.58024892c-8.52348345.00002123-15.43312124 7.22500422-15.43312124 16.13746506v7.29697856c.0000203 8.91244458 6.90965334 16.13740195 15.43312124 16.13741893h513.15218748c8.5234789-.00000425 15.43312958-7.22496285 15.433158-16.13741893v-7.29697856c.0000039-4.27992042-1.6259816-8.38454784-4.52025782-11.41091004-2.89427622-3.0263622-6.81975884-4.72655502-10.91288548-4.72655502z"/>
    </g>
  </g>
</svg>
